<svg xmlns="http://www.w3.org/2000/svg" viewBox="0 0 720 720" width="720" height="720" role="img" aria-labelledby="psm-es-002-file-title psm-es-002-file-desc" data-psm-asset="PSM-ES-002"><title id="psm-es-002-file-title">PSM-ES-002 暂无事务空状态</title><desc id="psm-es-002-file-desc">空的秩序托盘与低权重时间刻度，保持清爽，不把“暂无事务”渲染成紧迫告警。</desc><defs><linearGradient id="psm-es-002-file-ceramic" x1="0" y1="0" x2="1" y2="1"><stop offset="0" stop-color="#ffffff"/><stop offset=".55" stop-color="#f5f7fa"/><stop offset="1" stop-color="#e5ebf1"/></linearGradient><linearGradient id="psm-es-002-file-blue" x1="0" y1="0" x2="1" y2="1"><stop offset="0" stop-color="#52b9f3"/><stop offset=".52" stop-color="#329ee6"/><stop offset="1" stop-color="#2d72cc"/></linearGradient><linearGradient id="psm-es-002-file-gold" x1="0" y1="0" x2="1" y2="1"><stop offset="0" stop-color="#f7dda0"/><stop offset=".56" stop-color="#e8c67a"/><stop offset="1" stop-color="#b77c4a"/></linearGradient><radialGradient id="psm-es-002-file-glow" cx=".22" cy=".16" r=".82"><stop offset="0" stop-color="#fffbe8" stop-opacity=".98"/><stop offset=".35" stop-color="#ffffff" stop-opacity=".42"/><stop offset="1" stop-color="#d8e8f6" stop-opacity="0"/></radialGradient><filter id="psm-es-002-file-shadow" x="-35%" y="-35%" width="190%" height="210%"><feDropShadow dx="9" dy="14" stdDeviation="12" flood-color="#31445d" flood-opacity=".20"/></filter><filter id="psm-es-002-file-contact" x="-30%" y="-30%" width="170%" height="180%"><feDropShadow dx="3" dy="5" stdDeviation="4" flood-color="#263a54" flood-opacity=".22"/></filter><filter id="psm-es-002-file-blur18" x="-45%" y="-45%" width="190%" height="190%"><feGaussianBlur stdDeviation="18"/></filter><filter id="psm-es-002-file-blur34" x="-55%" y="-55%" width="210%" height="210%"><feGaussianBlur stdDeviation="34"/></filter><filter id="psm-es-002-file-noise" x="-10%" y="-10%" width="120%" height="120%"><feTurbulence type="fractalNoise" baseFrequency=".72" numOctaves="2" seed="17" stitchTiles="stitch"/><feColorMatrix values="0 0 0 0 .32 0 0 0 0 .40 0 0 0 0 .49 0 0 0 .18 0"/></filter></defs><ellipse cx="360" cy="564" rx="218" ry="43" fill="#395571" opacity=".1" filter="url(#psm-es-002-file-blur18)"/><rect x="133" y="184" width="454" height="350" rx="48" fill="url(#psm-es-002-file-ceramic)" stroke="#cbd6e1" stroke-width="3" filter="url(#psm-es-002-file-shadow)"/><path d="M194 266h332M194 359h332M194 452h332" stroke="#cbd5df" stroke-width="2"/><g fill="none" stroke="#8da0b3" stroke-width="4"><circle cx="226" cy="313" r="17" opacity=".46"/><circle cx="226" cy="406" r="17" opacity=".34"/></g><rect x="271" y="301" width="183" height="12" rx="6" fill="#94a6b8" opacity=".31"/><rect x="271" y="394" width="142" height="12" rx="6" fill="#94a6b8" opacity=".23"/><circle cx="493" cy="313" r="4" fill="#e8c67a" opacity=".76"/><circle cx="493" cy="406" r="4" fill="#329ee6" opacity=".42"/><g transform="translate(457 91)"><circle cx="76" cy="76" r="73" fill="#f8fafc" stroke="#c7d3df" stroke-width="3" filter="url(#psm-es-002-file-contact)"/><path d="M76 76V32M76 76l33 20" stroke="#2d72cc" stroke-width="9" stroke-linecap="round"/><circle cx="76" cy="76" r="10" fill="#e8c67a"/></g><path d="M157 158h112" stroke="#e8c67a" stroke-opacity=".42" stroke-width="3"/></svg>
